<svg xmlns="http://www.w3.org/2000/svg" fill="#e5e5e6" viewBox="0 0 512 512"><title>Instagram Logo</title><path d="M349.33,69.49a51.54,51.54,0,0,1,51.54,51.54V391.96a51.54,51.54,0,0,1-51.54,51.54H162.67A51.54,51.54,0,0,1,111.13,391.96V121a51.54,51.54,0,0,1,51.54-51.54H349.33M256,0C114.83,0,0,114.83,0,256S114.83,512,256,512,512,397.17,512,256,397.17,0,256,0ZM256,440a184,184,0,1,0-184-184A184,184,0,0,0,256,440Zm-53.67-184a53.67,53.67,0,1,1,53.67,53.67A53.67,53.67,0,0,1,202.33,256Z"/><circle cx="394.88" cy="117.12" r="13.84"/></svg>
